<svg width="10" height="18" viewBox="0 0 10 18" fill="none" xmlns="http://www.w3.org/2000/svg">
<path d="M0.735542 1.39646L7.65204 8.42396C7.80374 8.57729 7.88882 8.78427 7.88882 8.99996C7.88882 9.21565 7.80374 9.42263 7.65204 9.57596L0.737043 16.6035C0.585428 16.7577 0.500474 16.9654 0.500474 17.1817C0.500474 17.398 0.585428 17.6057 0.737043 17.76C0.811108 17.8359 0.899632 17.8963 0.997397 17.9375C1.09516 17.9788 1.20019 18 1.30629 18C1.41239 18 1.51742 17.9788 1.61519 17.9375C1.71295 17.8963 1.80148 17.8359 1.87554 17.76L8.79054 10.734C9.24493 10.2712 9.49951 9.64852 9.49951 8.99996C9.49951 8.35139 9.24493 7.72874 8.79054 7.26596L1.87554 0.239957C1.80145 0.163754 1.71284 0.103181 1.61493 0.0618184C1.51703 0.0204563 1.41183 -0.000854846 1.30554 -0.00085485C1.19926 -0.000854855 1.09406 0.0204562 0.996153 0.0618184C0.898249 0.10318 0.809631 0.163754 0.735542 0.239957C0.583929 0.39424 0.498975 0.601897 0.498975 0.818207C0.498975 1.03452 0.583929 1.24217 0.735542 1.39646Z" fill="#F2F4F7"/>
</svg>
