<svg width="20" height="24" viewBox="0 0 20 24" fill="none" xmlns="http://www.w3.org/2000/svg">
<path d="M16.5015 1H4.00919C3.34656 1 2.71107 1.26281 2.24252 1.73062C1.77397 2.19843 1.51074 2.83291 1.51074 3.4945V22.3753C1.51078 22.4845 1.53954 22.5918 1.59414 22.6864C1.64874 22.7811 1.72728 22.8597 1.82189 22.9145C1.9165 22.9693 2.02386 22.9984 2.13324 22.9987C2.24263 22.9991 2.35019 22.9708 2.44516 22.9166L9.01609 19.1687C9.39352 18.9534 9.82066 18.8402 10.2553 18.8402C10.69 18.8402 11.1171 18.9534 11.4946 19.1687L18.0655 22.9179C18.1606 22.9721 18.2682 23.0004 18.3777 23C18.4872 22.9996 18.5947 22.9704 18.6893 22.9155C18.784 22.8605 18.8625 22.7817 18.917 22.6869C18.9715 22.5921 19.0001 22.4846 18.9999 22.3753V3.4945C18.9999 2.83291 18.7367 2.19843 18.2681 1.73062C17.7996 1.26281 17.1641 1 16.5015 1Z" stroke="#F2F4F7" stroke-width="2" stroke-linecap="round" stroke-linejoin="round"/>
</svg>
